<svg width="1292" height="585" viewBox="0 0 1292 585" fill="none" xmlns="http://www.w3.org/2000/svg">
<path d="M289.675 45.9812L380.513 45.6879L380.367 0.268431L463.756 83.1205L380.904 166.509L380.757 121.09L289.918 121.383L289.675 45.9812ZM298.609 54.8582L298.795 112.449L389.634 112.156L389.739 144.81L450.991 83.1617L389.343 21.9104L389.448 54.5649L298.609 54.8582ZM226.147 46.1864L269.785 46.0454L270.029 121.448L226.39 121.589L226.147 46.1864ZM235.081 55.0634L235.267 112.654L261.094 112.571L260.908 54.98L235.081 55.0634Z" fill="white"/>
<path d="M1169.9 585V455.039H1124L1208 371L1292 455.039H1246.1V585H1169.9ZM1178.9 575.996H1237.1V446.035H1270.1L1208 383.906L1145.9 446.035H1178.9V575.996Z" fill="white"/>
<path d="M1.13535 464.569L119.834 465.705L120.26 421.136L196.236 503.436L118.699 584.265L119.125 539.696L0.427055 538.56L1.13535 464.569ZM9.27559 473.387L8.73461 529.899L127.433 531.036L127.126 563.079L184.448 503.323L128.281 442.48L127.974 474.523L9.27559 473.387Z" fill="white"/>
</svg>
