<svg width="1440" height="1021" viewBox="0 0 1440 1021" fill="none" xmlns="http://www.w3.org/2000/svg">
<path d="M813.925 81.2064C819.041 101.675 832.874 138.654 872.69 174.383C905.185 203.542 927.748 213.903 949.556 215.797C972.007 217.668 986.455 205.168 995.728 194.016C1009 178.061 1010.69 144.53 988.687 114C1019 137.908 1046.41 125.95 1058.11 111.881C1080.93 84.4312 1071.13 44.4785 1015.78 -5.18911C974.537 -42.1995 946.946 -45.388 942.02 -46.2132L935.614 -13.0151C942.039 -11.7433 967.528 -2.65212 993.596 20.7397C1030.02 53.4242 1041.09 73.8485 1029.4 87.9167C1011.13 109.877 960.214 65.3817 940.395 47.5975L939.503 46.7964L936.289 43.9125L914.603 69.9901C919.246 74.1558 924.031 78.1499 928.673 82.3156C939.921 92.4093 950.42 103.029 959.638 119.689C973.607 144.507 974.116 161.142 967.411 169.205C954.143 185.161 926.799 176.801 894.482 147.802C864.486 120.885 849.086 90.289 846.543 74.2259L813.925 81.2064Z" fill="black"/>
<path d="M846.064 74.0861C838.313 54.5319 819.761 19.8535 775.633 -9.91065C739.618 -34.2025 715.908 -41.2749 694.054 -40.0667C671.567 -38.7452 658.893 -24.318 651.167 -11.9585C640.114 5.72498 642.831 39.1836 668.631 66.3165C635.464 46.9192 609.883 62.6425 600.137 78.2344C581.121 108.658 596.068 146.852 657.412 188.228C703.123 219.06 730.875 218.316 735.863 218.437L737.858 184.642C731.326 184.291 704.883 178.89 675.992 159.403C635.624 132.175 621.974 113.507 631.72 97.9151C646.933 73.5765 703.211 110.455 725.176 125.27L726.166 125.938L729.728 128.34L747.793 99.4381C742.648 95.9678 737.384 92.6877 732.239 89.2174C719.773 80.8087 707.979 71.7729 696.664 56.5719C679.571 33.9606 676.887 17.5531 682.473 8.61624C693.526 -9.06726 721.711 -4.6532 757.528 19.5052C790.773 41.9284 810.04 70.0614 814.665 85.6151L846.064 74.0861Z" fill="black"/>
<path d="M774.163 890.517C774.163 956.901 735.942 1018.97 704.699 1018.97C687.105 1018.97 676.185 1011.43 676.185 1011.43L706.822 899.354C731.392 873.49 741.099 863.791 759.299 863.791C771.433 863.791 774.163 878.663 774.163 890.517ZM568.804 989.231C568.804 932.115 597.014 864.007 634.325 864.007C652.525 864.007 665.872 875.861 665.872 875.861C657.378 907.329 644.335 951.082 635.841 982.549C612.484 1005.83 591.857 1018.97 578.511 1018.97C572.747 1018.97 568.804 1011.21 568.804 989.231ZM749.289 781.458L712.585 764C697.115 778.01 689.229 796.33 685.285 809.046L675.578 840.083C675.578 840.083 658.895 831.03 639.178 831.03C562.737 831.03 523 907.113 523 992.679C523 1032.77 539.077 1052.38 570.927 1052.38C600.351 1052.38 628.258 1034.06 628.258 1034.06L614.304 1072.21C605.811 1095.27 588.824 1107.13 553.03 1119.2L575.477 1147C614.304 1135.15 645.245 1118.12 657.378 1077.38L665.872 1048.93C665.872 1048.93 678.915 1052.38 701.969 1052.38C769.613 1052.38 823 976.73 823 886.853C823 853.446 808.137 830.815 770.219 830.815H769.309C738.066 830.815 717.439 852.153 715.922 853.23L731.999 809.046C735.032 800.64 742.009 788.14 749.289 781.458Z" fill="black"/>
<path d="M1529.64 511.653C1462.89 554.948 1382.09 567.106 1367.08 543.951C1358.62 530.912 1360.96 517.9 1360.96 517.9L1488.39 467.509C1526.2 468.85 1540.62 469.718 1549.37 483.207C1555.2 492.199 1541.56 503.921 1529.64 511.653ZM1331.67 423.84C1389.1 386.589 1471.15 363.076 1489.08 390.727C1497.83 404.216 1492.33 421.838 1492.33 421.838C1456.6 436.067 1406.33 454.936 1370.61 469.164C1335.97 467.036 1312.84 460.324 1306.42 450.432C1303.65 446.161 1309.56 438.178 1331.67 423.84ZM1627.35 422.091L1627.27 383.503C1605.74 381.175 1583.53 387.279 1568.85 392.65L1532.97 405.698C1532.97 405.698 1534.05 387.43 1524.58 372.817C1487.83 316.166 1392.23 336.338 1306.18 392.143C1265.87 418.289 1253.87 442.996 1269.18 466.6C1283.33 488.406 1315.16 497.14 1315.16 497.14L1270.09 511.68C1242.82 520.426 1222.74 515.568 1193.39 496.913L1176.22 531.682C1206.81 552.726 1238.8 564.551 1285.6 546.976L1318.29 534.715C1318.29 534.715 1321.09 546.631 1332.17 563.716C1364.68 613.848 1466.42 604.074 1556.8 545.457C1590.39 523.668 1606.01 497.893 1587.78 469.793L1587.34 469.118C1572.32 445.963 1540.95 444.593 1539.14 444.172L1591.3 427.27C1601.21 424.036 1617.13 421.053 1627.35 422.091Z" fill="black"/>
<path d="M-67.9093 605.446C-64.1432 623.237 -53.2417 655.564 -19.1055 687.871C8.75453 714.237 28.4845 724.052 47.8717 726.563C67.833 729.081 81.2136 718.928 89.9241 709.724C102.387 696.556 105.207 667.82 86.7635 640.702C112.883 662.469 137.804 653.306 148.793 641.695C170.234 619.04 163.046 584.322 115.592 539.411C80.2311 505.946 55.7342 502.089 51.3707 501.18L44.3591 529.439C50.043 530.792 72.4335 539.635 94.7828 560.786C126.011 590.34 135.097 608.334 124.109 619.945C106.956 638.07 63.252 597.782 46.2604 581.701L45.495 580.977L42.7397 578.369L22.3706 599.892C26.3506 603.659 30.4646 607.284 34.4446 611.051C44.0885 620.177 53.0433 629.726 60.6188 644.411C72.1161 666.297 71.9213 680.608 65.6229 687.263C53.1603 700.431 29.0854 692.142 1.37846 665.92C-24.3385 641.581 -36.8872 614.674 -38.5299 600.772L-67.9093 605.446Z" fill="black"/>
<path d="M1373.48 399.555C1391.99 384.282 1423.43 351.696 1442.16 291.462C1457.45 242.302 1458.04 212.86 1450.37 188.256C1442.39 162.964 1423.35 153.192 1407.96 148.404C1385.94 141.553 1351.17 155.624 1329.88 194.029C1340.8 149.731 1316.61 125.618 1297.19 119.578C1259.3 107.792 1223.08 137.407 1197.04 221.141C1177.63 283.536 1186.53 315.04 1187.86 320.786L1224.36 311.995C1222.82 304.407 1220.83 272.387 1233.1 232.951C1250.24 177.849 1266.09 156.117 1285.51 162.157C1315.82 171.586 1293.07 248.051 1283.75 278.033L1283.33 279.384L1281.82 284.246L1317.81 295.442C1320 288.42 1321.94 281.323 1324.13 274.3C1329.42 257.283 1335.58 240.831 1348.43 222.906C1367.46 195.944 1384.11 187.496 1395.24 190.958C1417.27 197.809 1420.81 231.498 1405.61 280.388C1391.49 325.767 1367.22 357.026 1352.05 367.413L1373.48 399.555Z" fill="black"/>
</svg>
